<svg width="8" height="8" viewBox="0 0 8 8" fill="none" xmlns="http://www.w3.org/2000/svg">
<path d="M7.14986 0.854978C7.05645 0.761352 6.92962 0.708735 6.79736 0.708735C6.6651 0.708735 6.53828 0.761352 6.44486 0.854978L3.99986 3.29498L1.55486 0.849978C1.46145 0.756352 1.33462 0.703735 1.20236 0.703735C1.0701 0.703735 0.943279 0.756352 0.849863 0.849978C0.654863 1.04498 0.654863 1.35998 0.849863 1.55498L3.29486 3.99998L0.849863 6.44498C0.654863 6.63998 0.654863 6.95498 0.849863 7.14998C1.04486 7.34498 1.35986 7.34498 1.55486 7.14998L3.99986 4.70498L6.44486 7.14998C6.63986 7.34498 6.95486 7.34498 7.14986 7.14998C7.34486 6.95498 7.34486 6.63998 7.14986 6.44498L4.70486 3.99998L7.14986 1.55498C7.33986 1.36498 7.33986 1.04498 7.14986 0.854978Z" fill="white"/>
</svg>
